#!OML:ASF E:\acrobat2\Project_11_07_03\Capture day 1\Session 1\Acrobat.ASF
:FULLY-SPECIFIED
:DEGREES
2778
root 10.8485 6.02052 11.6478 -88.0015 3.1527 179.648
lowerback -5.50767 -2.97558 4.963
upperback -0.166777 -4.32833 1.35774
thorax 2.65131 -2.10499 -1.69748
lowerneck 5.98816 -15.0113 -10.0081
upperneck -29.8501 -15.965 29.2722
head -6.16376 -8.72827 12.3537
rclavicle 4.92986e-014 -2.78795e-014
rhumerus 30.0458 -32.0309 -30.9731
rradius 121.243
rwrist -21.9024
rhand -20.1435 -43.4242
rfingers 7.12502
rthumb 6.20124 -73.3135
lclavicle 4.92986e-014 -2.78795e-014
lhumerus 16.0462 46.7604 2.97272
lradius 109.221
lwrist 32.4537
lhand -4.02631 -26.0848
lfingers 7.12502
lthumb 21.7287 2.71573
rfemur 0.757169 16.3171 -8.53465
rtibia -1.03368e-014
rfoot 31.433 -23.0638
rtoes 26.836
lfemur -11.3385 -20.8531 3.89218
ltibia 18.9074
lfoot 35.8992 12.5703
ltoes 21.9631
2779
root 10.8508 6.02412 11.6536 -88.0325 3.17751 179.629
lowerback -5.4251 -2.98335 4.90802
upperback -0.141977 -4.33155 1.34927
thorax 2.63388 -2.10777 -1.67184
lowerneck 5.93275 -14.9635 -10.0108
upperneck -29.815 -15.89 29.2702
head -6.15839 -8.68771 12.3498
rclavicle 3.18055e-015 2.53947e-014
rhumerus 30.0978 -32.1326 -30.9969
rradius 121.193
rwrist -21.8914
rhand -20.0699 -43.4534
rfingers 7.12502
rthumb 6.27234 -73.3405
lclavicle 3.18055e-015 2.53947e-014
lhumerus 16.1612 46.8326 2.97761
lradius 109.124
lwrist 32.4577
lhand -3.98233 -26.202
lfingers 7.12502
lthumb 21.7709 2.59362
rfemur 0.774978 16.3128 -8.57211
rtibia 1.19271e-015
rfoot 31.3391 -23.2566
rtoes 27.5046
lfemur -11.3638 -20.7779 3.86987
ltibia 18.9498
lfoot 36.0044 12.5631
ltoes 22.497
2780
root 10.8525 6.02794 11.6596 -88.073 3.22866 179.614
lowerback -5.32902 -2.99154 4.82965
upperback -0.117599 -4.3329 1.33361
thorax 2.60969 -2.11005 -1.63968
lowerneck 5.85809 -14.9129 -10.0395
upperneck -29.7538 -15.8265 29.2192
head -6.14215 -8.6444 12.326
rclavicle 3.49861e-014 -7.33018e-015
rhumerus 30.1864 -32.249 -31.0069
rradius 121.101
rwrist -21.8984
rhand -20.001 -43.4671
rfingers 7.12502
rthumb 6.33882 -73.3522
lclavicle 3.49861e-014 -7.33018e-015
lhumerus 16.2838 46.9113 2.95947
lradius 109.006
lwrist 32.4898
lhand -3.9373 -26.3134
lfingers 7.12502
lthumb 21.8142 2.47717
rfemur 0.788722 16.3168 -8.62996
rtibia -1.47101e-014
rfoot 31.307 -23.4594
rtoes 28.0678
lfemur -11.3772 -20.713 3.81465
ltibia 18.9942
lfoot 36.0909 12.5278
ltoes 23.048
2781
root 10.8533 6.03176 11.666 -88.123 3.29842 179.603
lowerback -5.22134 -3.00086 4.73858
upperback -0.0964217 -4.33413 1.31328
thorax 2.57625 -2.11266 -1.60443
lowerneck 5.74978 -14.8728 -10.1056
upperneck -29.6387 -15.787 29.2041
head -6.08854 -8.61291 12.3071
rclavicle 1.43125e-014 7.65321e-015
rhumerus 30.3139 -32.3708 -31.0002
rradius 120.963
rwrist -21.9307
rhand -19.942 -43.4638
rfingers 7.12502
rthumb 6.39577 -73.3473
lclavicle 1.43125e-014 7.65321e-015
lhumerus 16.4054 46.9899 2.91101
lradius 108.871
lwrist 32.5529
lhand -3.89277 -26.3965
lfingers 7.12502
lthumb 21.8569 2.38905
rfemur 0.803846 16.3277 -8.69651
rtibia 1.90833e-014
rfoot 31.3568 -23.6534
rtoes 28.4778
lfemur -11.3849 -20.6667 3.73442
ltibia 19.0504
lfoot 36.1638 12.4457
ltoes 23.2199
2782
root 10.8529 6.03533 11.6725 -88.1806 3.36235 179.596
lowerback -5.10579 -3.01055 4.66083
upperback -0.0788733 -4.33622 1.29537
thorax 2.53381 -2.11577 -1.57347
lowerneck 5.64032 -14.8388 -10.2043
upperneck -29.5093 -15.7591 29.2275
head -6.019 -8.58859 12.3035
rclavicle 0 -6.69656e-015
rhumerus 30.4692 -32.4824 -30.9872
rradius 120.792
rwrist -21.9785
rhand -19.8975 -43.4472
rfingers 7.12502
rthumb 6.43879 -73.3293
lclavicle 0 -6.69656e-015
lhumerus 16.5168 47.0605 2.84039
lradius 108.73
lwrist 32.6331
lhand -3.83792 -26.4545
lfingers 7.12502
lthumb 21.9096 2.32491
rfemur 0.819431 16.346 -8.74425
rtibia -1.35174e-014
rfoot 31.5069 -23.8161
rtoes 28.6835
lfemur -11.3906 -20.6447 3.65711
ltibia 19.1218
lfoot 36.2354 12.3168
ltoes 23.0251
2783
root 10.8516 6.03855 11.6792 -88.248 3.39906 179.59
lowerback -4.98268 -3.01987 4.62042
upperback -0.0626451 -4.33985 1.28428
thorax 2.4835 -2.1194 -1.55569
lowerneck 5.56124 -14.8096 -10.3286
upperneck -29.4122 -15.7307 29.3063
head -5.95518 -8.56815 12.3305
rclavicle -4.29375e-014 -9.93923e-017
rhumerus 30.6405 -32.574 -30.9848
rradius 120.605
rwrist -22.0278
rhand -19.8557 -43.4235
rfingers 7.12502
rthumb 6.47912 -73.3044
lclavicle -4.29375e-014 -9.93923e-017
lhumerus 16.6187 47.1164 2.7676
lradius 108.594
lwrist 32.7121
lhand -3.7688 -26.4808
lfingers 7.12502
lthumb 21.976 2.29087
rfemur 0.844135 16.3713 -8.75234
rtibia 1.59028e-015
rfoot 31.6963 -23.9929
rtoes 28.8387
lfemur -11.3875 -20.6481 3.60649
ltibia 19.198
lfoot 36.2962 12.178
ltoes 22.5495
